<?xml version="1.0" encoding="UTF-8" standalone="no"?>
<!DOCTYPE svg PUBLIC "-//W3C//DTD SVG 1.1//EN" "http://www.w3.org/Graphics/SVG/1.1/DTD/svg11.dtd">
<svg width="100%" height="100%" viewBox="0 0 571 364" version="1.1" xmlns="http://www.w3.org/2000/svg" xmlns:xlink="http://www.w3.org/1999/xlink" xml:space="preserve" xmlns:serif="http://www.serif.com/" style="fill-rule:evenodd;clip-rule:evenodd;stroke-linecap:round;stroke-linejoin:round;stroke-miterlimit:1.5;">
    <path d="M568.806,14.272L568.806,349.502C568.806,356.212 563.358,361.66 556.648,361.66L14.272,361.66C7.562,361.66 2.113,356.212 2.113,349.502L2.113,14.272C2.113,7.562 7.562,2.113 14.272,2.113L556.648,2.113C563.358,2.113 568.806,7.562 568.806,14.272Z" style="fill:#ebebeb;fill-opacity:0.62;stroke:#fff;stroke-width:4.23px;"/>
    <g id="outsideTemp" transform="matrix(16,0,0,16,313.499,300.592)">
    </g>
    <text x="304.601px" y="300.592px" style="font-family:'ArialMT', 'Arial', sans-serif;font-size:16px;fill:#1a1a1a;">0</text>
    <g id="outsideTempLabel" transform="matrix(16,0,0,16,303.101,300.592)">
    </g>
    <text x="181.101px" y="300.592px" style="font-family:'ArialMT', 'Arial', sans-serif;font-size:16px;fill:#1a1a1a;">Outside temp C°:</text>
    <text id="consumpExplanation" x="180.609px" y="333.592px" style="font-family:'ArialMT', 'Arial', sans-serif;font-size:16px;fill:#1a1a1a;">Example: 33 wh/m2 pr. Heat Degree Day (Base 20)</text>
    <text id="totalConsumptionLabel" x="249.788px" y="43.543px" style="font-family:'ArialMT', 'Arial', sans-serif;font-size:16px;fill:#1a1a1a;">TOTAL CONSUMPTION:</text>
    <text id="avgConsumptionLabel" x="250.186px" y="145.071px" style="font-family:'ArialMT', 'Arial', sans-serif;font-size:16px;fill:#1a1a1a;">AVERAGE CONSUMPTION</text>
    <g id="totalConsumption" transform="matrix(48,0,0,48,541.819,97.9519)">
    </g>
    <text x="248.171px" y="97.952px" style="font-family:'ArialMT', 'Arial', sans-serif;font-size:48px;fill:#1a1a1a;">00000000000</text>
    <g id="avgConsumption" transform="matrix(48,0,0,48,541.819,198.844)">
    </g>
    <text x="248.171px" y="198.844px" style="font-family:'ArialMT', 'Arial', sans-serif;font-size:48px;fill:#1a1a1a;">00000000000</text>
    <g transform="matrix(16,0,0,16,136.335,43.5428)">
    </g>
    <text x="82.093px" y="43.543px" style="font-family:'ArialMT', 'Arial', sans-serif;font-size:16px;">ABUSE</text>
    <g transform="matrix(16,0,0,16,149.304,193.543)">
    </g>
    <text x="80.851px" y="193.543px" style="font-family:'ArialMT', 'Arial', sans-serif;font-size:16px;">NORMAL</text>
    <g transform="matrix(16,0,0,16,125.726,334.287)">
    </g>
    <text x="81.273px" y="334.287px" style="font-family:'ArialMT', 'Arial', sans-serif;font-size:16px;">COLD</text>
    <g>
        <rect x="25.71" y="17.511" width="32.875" height="32.875" style="fill:#f00;"/>
        <rect x="25.71" y="50.386" width="32.875" height="32.875" style="fill:#ff4100;"/>
        <rect x="25.71" y="83.261" width="32.875" height="32.875" style="fill:#ff8b3b;"/>
        <rect x="25.71" y="116.136" width="32.875" height="32.875" style="fill:#ffc228;"/>
        <rect x="25.71" y="149.012" width="32.875" height="32.875" style="fill:#fad320;"/>
        <rect x="25.71" y="181.887" width="32.875" height="32.875" style="fill:#008cff;"/>
        <rect x="25.71" y="214.762" width="32.875" height="32.875" style="fill:#005dff;"/>
        <rect x="25.71" y="247.637" width="32.875" height="32.875" style="fill:#00f;"/>
        <rect x="25.71" y="280.513" width="32.875" height="32.875" style="fill:#0000d9;"/>
        <rect x="25.71" y="313.388" width="32.875" height="32.875" style="fill:#04213f;"/>
    </g>
</svg>
